<svg xmlns="http://www.w3.org/2000/svg" xmlns:xlink="http://www.w3.org/1999/xlink" contentStyleType="text/css" data-diagram-type="DESCRIPTION" height="709px" preserveAspectRatio="none" style="width:1196px;height:709px;background:#FFFFFF;" version="1.1" viewBox="0 0 1196 709" width="1196px" zoomAndPan="magnify"><defs/><g><!--cluster walletSolution--><g id="cluster_walletSolution"><rect fill="none" height="385.86" rx="2.5" ry="2.5" style="stroke:#181818;stroke-width:1;stroke-dasharray:7.0,7.0;" width="512" x="503" y="171.8"/><text fill="#000000" font-family="sans-serif" font-size="16" font-weight="bold" lengthAdjust="spacing" textLength="138.3906" x="689.8047" y="208.6516">Wallet Solution</text><text fill="#000000" font-family="sans-serif" font-size="12" font-weight="bold" lengthAdjust="spacing" textLength="59.4551" x="729.2725" y="223.5637">[system]</text></g><!--cluster walletInstance--><g id="cluster_walletInstance"><rect fill="none" height="266.86" rx="2.5" ry="2.5" style="stroke:#181818;stroke-width:1;stroke-dasharray:7.0,7.0;" width="242" x="741" y="258.8"/><text fill="#000000" font-family="sans-serif" font-size="16" font-weight="bold" lengthAdjust="spacing" textLength="140.5234" x="791.7383" y="295.6516">Wallet Instance</text><text fill="#000000" font-family="sans-serif" font-size="12" font-weight="bold" lengthAdjust="spacing" textLength="59.4551" x="832.2725" y="310.5637">[system]</text></g><!--cluster qeeaProvider--><g id="cluster_qeeaProvider"><rect fill="none" height="334.4" rx="2.5" ry="2.5" style="stroke:#181818;stroke-width:1;stroke-dasharray:7.0,7.0;" width="464" x="7" y="249.49"/><text fill="#000000" font-family="sans-serif" font-size="16" font-weight="bold" lengthAdjust="spacing" textLength="130.1328" x="173.9336" y="286.3416">QEEA Provider</text><text fill="#000000" font-family="sans-serif" font-size="12" font-weight="bold" lengthAdjust="spacing" textLength="59.4551" x="209.2725" y="301.2537">[system]</text></g><!--entity backupApiService--><g id="elem_backupApiService"><rect fill="#438DD5" height="52.5938" rx="2.5" ry="2.5" style="stroke:#3C7FC0;stroke-width:0.5;" width="193.6797" x="765.16" y="337.8"/><text fill="#FFFFFF" font-family="sans-serif" font-size="12" font-style="italic" lengthAdjust="spacing" textLength="71.543" x="826.2284" y="358.9387">&#171;container&#187;</text><text fill="#FFFFFF" font-family="sans-serif" font-size="16" font-weight="bold" lengthAdjust="spacing" textLength="65.9609" x="775.16" y="376.6203">Backup</text><text fill="#FFFFFF" font-family="sans-serif" font-size="16" font-weight="bold" lengthAdjust="spacing" textLength="5.5703" x="841.1209" y="376.6203">&#160;</text><text fill="#FFFFFF" font-family="sans-serif" font-size="16" font-weight="bold" lengthAdjust="spacing" textLength="30.0625" x="846.6913" y="376.6203">API</text><text fill="#FFFFFF" font-family="sans-serif" font-size="16" font-weight="bold" lengthAdjust="spacing" textLength="5.5703" x="876.7538" y="376.6203">&#160;</text><text fill="#FFFFFF" font-family="sans-serif" font-size="16" font-weight="bold" lengthAdjust="spacing" textLength="66.5156" x="882.3241" y="376.6203">Service</text></g><!--entity mobileStorage--><g id="elem_mobileStorage"><rect fill="#438DD5" height="71.2188" rx="2.5" ry="2.5" style="stroke:#3C7FC0;stroke-width:0.5;" width="198.6641" x="518.67" y="328.49"/><text fill="#FFFFFF" font-family="sans-serif" font-size="12" font-style="italic" lengthAdjust="spacing" textLength="71.543" x="582.2305" y="349.6287">&#171;container&#187;</text><text fill="#FFFFFF" font-family="sans-serif" font-size="16" font-weight="bold" lengthAdjust="spacing" textLength="60.1875" x="528.67" y="367.3103">Mobile</text><text fill="#FFFFFF" font-family="sans-serif" font-size="16" font-weight="bold" lengthAdjust="spacing" textLength="5.5703" x="588.8575" y="367.3103">&#160;</text><text fill="#FFFFFF" font-family="sans-serif" font-size="16" font-weight="bold" lengthAdjust="spacing" textLength="60.3828" x="594.4278" y="367.3103">Device</text><text fill="#FFFFFF" font-family="sans-serif" font-size="16" font-weight="bold" lengthAdjust="spacing" textLength="5.5703" x="654.8106" y="367.3103">&#160;</text><text fill="#FFFFFF" font-family="sans-serif" font-size="16" font-weight="bold" lengthAdjust="spacing" textLength="46.9531" x="660.3809" y="367.3103">Local</text><text fill="#FFFFFF" font-family="sans-serif" font-size="16" font-weight="bold" lengthAdjust="spacing" textLength="71.1563" x="582.4239" y="385.9353">Storage</text></g><!--entity oidcvci--><g id="elem_oidcvci"><rect fill="#438DD5" height="52.5938" rx="2.5" ry="2.5" style="stroke:#3C7FC0;stroke-width:0.5;" width="208.9297" x="30.54" y="337.8"/><text fill="#FFFFFF" font-family="sans-serif" font-size="12" font-style="italic" lengthAdjust="spacing" textLength="71.543" x="99.2334" y="358.9387">&#171;container&#187;</text><text fill="#FFFFFF" font-family="sans-serif" font-size="16" font-weight="bold" lengthAdjust="spacing" textLength="44.5781" x="40.54" y="376.6203">OIDC</text><text fill="#FFFFFF" font-family="sans-serif" font-size="16" font-weight="bold" lengthAdjust="spacing" textLength="5.5703" x="85.1181" y="376.6203">&#160;</text><text fill="#FFFFFF" font-family="sans-serif" font-size="16" font-weight="bold" lengthAdjust="spacing" textLength="30.0781" x="90.6884" y="376.6203">VCI</text><text fill="#FFFFFF" font-family="sans-serif" font-size="16" font-weight="bold" lengthAdjust="spacing" textLength="5.5703" x="120.7666" y="376.6203">&#160;</text><text fill="#FFFFFF" font-family="sans-serif" font-size="16" font-weight="bold" lengthAdjust="spacing" textLength="103.1328" x="126.3369" y="376.6203">Component</text></g><!--entity nationaleID--><g id="elem_nationaleID"><rect fill="#438DD5" height="85.1875" rx="2.5" ry="2.5" style="stroke:#3C7FC0;stroke-width:0.5;" width="140.082" x="64.96" y="474.71"/><text fill="#FFFFFF" font-family="sans-serif" font-size="12" font-style="italic" lengthAdjust="spacing" textLength="71.543" x="99.2295" y="495.8487">&#171;container&#187;</text><text fill="#FFFFFF" font-family="sans-serif" font-size="16" font-weight="bold" lengthAdjust="spacing" textLength="75.9844" x="79.1807" y="513.5303">National</text><text fill="#FFFFFF" font-family="sans-serif" font-size="16" font-weight="bold" lengthAdjust="spacing" textLength="5.5703" x="155.1651" y="513.5303">&#160;</text><text fill="#FFFFFF" font-family="sans-serif" font-size="16" font-weight="bold" lengthAdjust="spacing" textLength="30.0859" x="160.7354" y="513.5303">eID</text><text fill="#FFFFFF" font-family="sans-serif" font-size="16" font-weight="bold" lengthAdjust="spacing" textLength="103.1328" x="83.4346" y="532.1553">Component</text><text fill="#FFFFFF" font-family="sans-serif" font-size="12" font-style="italic" lengthAdjust="spacing" textLength="35.8066" x="74.96" y="547.0674">[(e.g.,</text><text fill="#FFFFFF" font-family="sans-serif" font-size="12" font-style="italic" lengthAdjust="spacing" textLength="3.8145" x="110.7666" y="547.0674">&#160;</text><text fill="#FFFFFF" font-family="sans-serif" font-size="12" font-style="italic" lengthAdjust="spacing" textLength="34.418" x="114.5811" y="547.0674">OIDC,</text><text fill="#FFFFFF" font-family="sans-serif" font-size="12" font-style="italic" lengthAdjust="spacing" textLength="3.8145" x="148.9991" y="547.0674">&#160;</text><text fill="#FFFFFF" font-family="sans-serif" font-size="12" font-style="italic" lengthAdjust="spacing" textLength="42.2285" x="152.8135" y="547.0674">SAML)]</text></g><!--entity fedapi--><g id="elem_fedapi"><rect fill="#438DD5" height="71.2188" rx="2.5" ry="2.5" style="stroke:#3C7FC0;stroke-width:0.5;" width="153.9219" x="274.04" y="328.49"/><text fill="#FFFFFF" font-family="sans-serif" font-size="12" font-style="italic" lengthAdjust="spacing" textLength="71.543" x="315.2295" y="349.6287">&#171;container&#187;</text><text fill="#FFFFFF" font-family="sans-serif" font-size="16" font-weight="bold" lengthAdjust="spacing" textLength="98.2891" x="284.04" y="367.3103">Federation</text><text fill="#FFFFFF" font-family="sans-serif" font-size="16" font-weight="bold" lengthAdjust="spacing" textLength="5.5703" x="382.3291" y="367.3103">&#160;</text><text fill="#FFFFFF" font-family="sans-serif" font-size="16" font-weight="bold" lengthAdjust="spacing" textLength="30.0625" x="387.8994" y="367.3103">API</text><text fill="#FFFFFF" font-family="sans-serif" font-size="16" font-weight="bold" lengthAdjust="spacing" textLength="66.5156" x="317.7431" y="385.9353">Service</text></g><!--entity CIESPID--><g id="elem_CIESPID"><rect fill="#F1F1F1" height="36.2969" rx="2.5" ry="2.5" style="stroke:#181818;stroke-width:0.5;" width="74.9883" x="97.51" y="666.89"/><text fill="#000000" font-family="sans-serif" font-size="14" lengthAdjust="spacing" textLength="54.9883" x="107.51" y="689.8851">CIESPID</text></g><!--entity User--><g id="elem_User"><ellipse cx="831" cy="22" fill="#F1F1F1" rx="16" ry="16" style="stroke:#181818;stroke-width:0.5;"/><path d="M831,42 C835,42 838,42 842,38 C850,38 858,46 858,54 L858,58 C858,62 854,66 850,66 L812,66 C808,66 804,62 804,58 L804,54 C804,46 812,38 820,38 C824,42 827,42 831,42 " fill="#F1F1F1" style="stroke:#181818;stroke-width:0.5;"/><text fill="#000000" font-family="sans-serif" font-size="14" lengthAdjust="spacing" textLength="31.9102" x="815.0449" y="79.4951">User</text></g><!--link mobileStorage to walletInstance--><!--link User to backupApiService--><g id="link_User_backupApiService"><path d="M803.35,59.35 C784.18,70.87 760.17,89.09 749,112.8 C740.85,130.09 739.98,138.95 749,155.8 C752.02,161.45 756.74,159.01 761,163.8 C808.38,217.18 837.8798,291.1058 851.8198,331.6658 " fill="none" id="User-to-backupApiService" style="stroke:#666666;stroke-width:1;"/><polygon fill="#666666" points="853.77,337.34,854.6276,327.5285,852.1449,332.6115,847.0619,330.1288,853.77,337.34" style="stroke:#666666;stroke-width:1;"/><text fill="#666666" font-family="sans-serif" font-size="12" font-weight="bold" lengthAdjust="spacing" textLength="12.9082" x="750" y="138.9387">1.</text><text fill="#666666" font-family="sans-serif" font-size="12" font-weight="bold" lengthAdjust="spacing" textLength="4.1777" x="762.9082" y="138.9387">&#160;</text><text fill="#666666" font-family="sans-serif" font-size="12" font-weight="bold" lengthAdjust="spacing" textLength="52.5586" x="767.0859" y="138.9387">Restore</text><text fill="#666666" font-family="sans-serif" font-size="12" font-weight="bold" lengthAdjust="spacing" textLength="4.1777" x="819.6445" y="138.9387">&#160;</text><text fill="#666666" font-family="sans-serif" font-size="12" font-weight="bold" lengthAdjust="spacing" textLength="43.4355" x="823.8223" y="138.9387">Wallet</text></g><!--link User to backupApiService--><g id="link_User_backupApiService"><path d="M861.9442,88.3679 C867.3242,97.6279 869.15,102.61 872,112.8 C894.23,192.38 879.2221,285.8442 869.3421,331.7642 " fill="none" id="User-backupApiService" style="stroke:#666666;stroke-width:1;"/><polygon fill="#666666" points="858.93,83.18,859.9926,92.9714,861.4418,87.5033,866.9099,88.9525,858.93,83.18" style="stroke:#666666;stroke-width:1;"/><polygon fill="#666666" points="868.08,337.63,873.8836,329.6727,869.1317,332.7419,866.0626,327.99,868.08,337.63" style="stroke:#666666;stroke-width:1;"/><text fill="#666666" font-family="sans-serif" font-size="12" font-weight="bold" lengthAdjust="spacing" textLength="12.9082" x="880" y="131.9387">2.</text><text fill="#666666" font-family="sans-serif" font-size="12" font-weight="bold" lengthAdjust="spacing" textLength="4.1777" x="892.9082" y="131.9387">&#160;</text><text fill="#666666" font-family="sans-serif" font-size="12" font-weight="bold" lengthAdjust="spacing" textLength="49.7871" x="897.0859" y="131.9387">Prompt</text><text fill="#666666" font-family="sans-serif" font-size="12" font-weight="bold" lengthAdjust="spacing" textLength="4.1777" x="946.873" y="131.9387">&#160;</text><text fill="#666666" font-family="sans-serif" font-size="12" font-weight="bold" lengthAdjust="spacing" textLength="13.9805" x="951.0508" y="131.9387">to</text><text fill="#666666" font-family="sans-serif" font-size="12" font-weight="bold" lengthAdjust="spacing" textLength="4.1777" x="965.0313" y="131.9387">&#160;</text><text fill="#666666" font-family="sans-serif" font-size="12" font-weight="bold" lengthAdjust="spacing" textLength="47.3789" x="969.209" y="131.9387">Upload</text><text fill="#666666" font-family="sans-serif" font-size="12" font-weight="bold" lengthAdjust="spacing" textLength="49.4707" x="909.1885" y="145.9074">Backup</text><text fill="#666666" font-family="sans-serif" font-size="12" font-weight="bold" lengthAdjust="spacing" textLength="4.1777" x="958.6592" y="145.9074">&#160;</text><text fill="#666666" font-family="sans-serif" font-size="12" font-weight="bold" lengthAdjust="spacing" textLength="24.5625" x="962.8369" y="145.9074">File</text></g><!--link User to backupApiService--><g id="link_User_backupApiService"><path d="M858.67,45.46 C902.49,47.63 986.79,59 1025,112.8 C1081.91,192.91 970.1391,288.0919 905.6891,333.9419 " fill="none" id="User-to-backupApiService-1" style="stroke:#666666;stroke-width:1;"/><polygon fill="#666666" points="900.8,337.42,910.4523,335.4622,904.8742,334.5216,905.8149,328.9435,900.8,337.42" style="stroke:#666666;stroke-width:1;"/><text fill="#666666" font-family="sans-serif" font-size="12" font-weight="bold" lengthAdjust="spacing" textLength="12.9082" x="1043.3984" y="124.9387">4.</text><text fill="#666666" font-family="sans-serif" font-size="12" font-weight="bold" lengthAdjust="spacing" textLength="4.1777" x="1056.3066" y="124.9387">&#160;</text><text fill="#666666" font-family="sans-serif" font-size="12" font-weight="bold" lengthAdjust="spacing" textLength="51.6211" x="1060.4844" y="124.9387">Provide</text><text fill="#666666" font-family="sans-serif" font-size="12" font-weight="bold" lengthAdjust="spacing" textLength="4.1777" x="1112.1055" y="124.9387">&#160;</text><text fill="#666666" font-family="sans-serif" font-size="12" font-weight="bold" lengthAdjust="spacing" textLength="68.6484" x="1116.2832" y="124.9387">Encrypted</text><text fill="#666666" font-family="sans-serif" font-size="12" font-weight="bold" lengthAdjust="spacing" textLength="49.4707" x="1040" y="138.9074">Backup</text><text fill="#666666" font-family="sans-serif" font-size="12" font-weight="bold" lengthAdjust="spacing" textLength="4.1777" x="1089.4707" y="138.9074">&#160;</text><text fill="#666666" font-family="sans-serif" font-size="12" font-weight="bold" lengthAdjust="spacing" textLength="24.5625" x="1093.6484" y="138.9074">File</text><text fill="#666666" font-family="sans-serif" font-size="12" font-weight="bold" lengthAdjust="spacing" textLength="4.1777" x="1118.2109" y="138.9074">&#160;</text><text fill="#666666" font-family="sans-serif" font-size="12" font-weight="bold" lengthAdjust="spacing" textLength="25.2305" x="1122.3887" y="138.9074">and</text><text fill="#666666" font-family="sans-serif" font-size="12" font-weight="bold" lengthAdjust="spacing" textLength="4.1777" x="1147.6191" y="138.9074">&#160;</text><text fill="#666666" font-family="sans-serif" font-size="12" font-weight="bold" lengthAdjust="spacing" textLength="36.5332" x="1151.7969" y="138.9074">Enter</text><text fill="#666666" font-family="sans-serif" font-size="12" font-weight="bold" lengthAdjust="spacing" textLength="25.2598" x="1072.5576" y="152.8762">Key</text><text fill="#666666" font-family="sans-serif" font-size="12" font-weight="bold" lengthAdjust="spacing" textLength="4.1777" x="1097.8174" y="152.8762">&#160;</text><text fill="#666666" font-family="sans-serif" font-size="12" font-weight="bold" lengthAdjust="spacing" textLength="53.7773" x="1101.9951" y="152.8762">Phrases</text></g><!--link User to mobileStorage--><g id="link_User_mobileStorage"><path d="M797.2296,49.6336 C739.6996,57.8036 616.8,78.72 591,112.8 C542.99,176.22 574.424,270.5002 598.034,322.8702 " fill="none" id="User-mobileStorage" style="stroke:#666666;stroke-width:1;"/><polygon fill="#666666" points="803.17,48.79,793.697,46.0952,798.2197,49.493,794.8218,54.0157,803.17,48.79" style="stroke:#666666;stroke-width:1;"/><polygon fill="#666666" points="600.5,328.34,600.4476,318.4913,598.445,323.7818,593.1545,321.7792,600.5,328.34" style="stroke:#666666;stroke-width:1;"/><text fill="#666666" font-family="sans-serif" font-size="12" font-weight="bold" lengthAdjust="spacing" textLength="12.9082" x="592" y="131.9387">3.</text><text fill="#666666" font-family="sans-serif" font-size="12" font-weight="bold" lengthAdjust="spacing" textLength="4.1777" x="604.9082" y="131.9387">&#160;</text><text fill="#666666" font-family="sans-serif" font-size="12" font-weight="bold" lengthAdjust="spacing" textLength="41.8828" x="609.0859" y="131.9387">Select</text><text fill="#666666" font-family="sans-serif" font-size="12" font-weight="bold" lengthAdjust="spacing" textLength="4.1777" x="650.9688" y="131.9387">&#160;</text><text fill="#666666" font-family="sans-serif" font-size="12" font-weight="bold" lengthAdjust="spacing" textLength="49.4707" x="655.1465" y="131.9387">Backup</text><text fill="#666666" font-family="sans-serif" font-size="12" font-weight="bold" lengthAdjust="spacing" textLength="4.1777" x="704.6172" y="131.9387">&#160;</text><text fill="#666666" font-family="sans-serif" font-size="12" font-weight="bold" lengthAdjust="spacing" textLength="24.5625" x="708.7949" y="131.9387">File</text><text fill="#666666" font-family="sans-serif" font-size="12" font-weight="bold" lengthAdjust="spacing" textLength="31.8867" x="617.9629" y="145.9074">from</text><text fill="#666666" font-family="sans-serif" font-size="12" font-weight="bold" lengthAdjust="spacing" textLength="4.1777" x="649.8496" y="145.9074">&#160;</text><text fill="#666666" font-family="sans-serif" font-size="12" font-weight="bold" lengthAdjust="spacing" textLength="53.3672" x="654.0273" y="145.9074">Storage</text></g><!--link backupApiService to walletInstance--><g id="link_backupApiService_walletInstance"><path d="M842.83,390.75 C811.1,433.21 754.5169,508.9277 752.6369,511.4377 " fill="none" id="backupApiService-to-walletInstance" style="stroke:#666666;stroke-width:1;"/><polygon fill="#666666" points="749.04,516.24,757.6369,511.4345,752.0374,512.2381,751.2339,506.6386,749.04,516.24" style="stroke:#666666;stroke-width:1;"/><text fill="#666666" font-family="sans-serif" font-size="12" font-weight="bold" lengthAdjust="spacing" textLength="12.9082" x="813" y="441.8487">5.</text><text fill="#666666" font-family="sans-serif" font-size="12" font-weight="bold" lengthAdjust="spacing" textLength="4.1777" x="825.9082" y="441.8487">&#160;</text><text fill="#666666" font-family="sans-serif" font-size="12" font-weight="bold" lengthAdjust="spacing" textLength="70.0078" x="830.0859" y="441.8487">Decrypted</text><text fill="#666666" font-family="sans-serif" font-size="12" font-weight="bold" lengthAdjust="spacing" textLength="4.1777" x="900.0938" y="441.8487">&#160;</text><text fill="#666666" font-family="sans-serif" font-size="12" font-weight="bold" lengthAdjust="spacing" textLength="49.4707" x="904.2715" y="441.8487">Backup</text></g><!--link fedapi to walletInstance--><g id="link_fedapi_walletInstance"><path d="M339.98,399.85 C337.36,415.21 337.79,432.51 348,444.71 C355.205,453.315 453.95,471 551.6375,486.6388 C600.4813,494.4581 649.0606,501.7659 685.8009,507.1714 C704.1711,509.8741 719.5815,512.1013 730.5853,513.679 C733.3362,514.0734 735.8118,514.4273 737.9893,514.7378 C738.5336,514.8154 739.0594,514.8904 739.5662,514.9625 C739.8196,514.9986 734.1281,514.1885 734.3719,514.2232 " fill="none" id="fedapi-to-walletInstance" style="stroke:#666666;stroke-width:1;"/><polygon fill="#666666" points="740.3121,515.0687,731.9655,509.8404,735.3619,514.3642,730.8382,517.7606,740.3121,515.0687" style="stroke:#666666;stroke-width:1;"/><text fill="#666666" font-family="sans-serif" font-size="12" font-weight="bold" lengthAdjust="spacing" textLength="12.9082" x="349" y="441.8487">6.</text><text fill="#666666" font-family="sans-serif" font-size="12" font-weight="bold" lengthAdjust="spacing" textLength="4.1777" x="361.9082" y="441.8487">&#160;</text><text fill="#666666" font-family="sans-serif" font-size="12" font-weight="bold" lengthAdjust="spacing" textLength="45.2813" x="366.0859" y="441.8487">Obtain</text><text fill="#666666" font-family="sans-serif" font-size="12" font-weight="bold" lengthAdjust="spacing" textLength="4.1777" x="411.3672" y="441.8487">&#160;</text><text fill="#666666" font-family="sans-serif" font-size="12" font-weight="bold" lengthAdjust="spacing" textLength="64.4355" x="415.5449" y="441.8487">Metadata</text></g><!--link walletInstance to qeeaProvider--><g id="link_walletInstance_qeeaProvider"><path d="M740.8169,516.2454 C740.6668,516.2425 740.5148,516.2396 740.3609,516.2365 C735.4365,516.1373 728.5723,515.9109 720.2034,515.4092 C703.4656,514.4059 680.7088,512.3019 655.4125,507.9138 C604.82,499.1375 544.07,481.225 501,444.71 C486.515,432.425 477.1475,413.3625 471.3375,396.97 C471.2467,396.7139 473.1364,402.1224 473.0473,401.8676 " fill="none" id="walletInstance-to-qeeaProvider" style="stroke:#666666;stroke-width:1;"/><polygon fill="#666666" points="471.0678,396.2036,470.2611,406.0194,472.7174,400.9236,477.8131,403.3799,471.0678,396.2036" style="stroke:#666666;stroke-width:1;"/><text fill="#666666" font-family="sans-serif" font-size="12" font-weight="bold" lengthAdjust="spacing" textLength="12.9082" x="502" y="441.8487">7.</text><text fill="#666666" font-family="sans-serif" font-size="12" font-weight="bold" lengthAdjust="spacing" textLength="4.1777" x="514.9082" y="441.8487">&#160;</text><text fill="#666666" font-family="sans-serif" font-size="12" font-weight="bold" lengthAdjust="spacing" textLength="55.5293" x="519.0859" y="441.8487">Request</text><text fill="#666666" font-family="sans-serif" font-size="12" font-weight="bold" lengthAdjust="spacing" textLength="4.1777" x="574.6152" y="441.8487">&#160;</text><text fill="#666666" font-family="sans-serif" font-size="12" font-weight="bold" lengthAdjust="spacing" textLength="46.8516" x="578.793" y="441.8487">(Q)EEA</text></g><!--link qeeaProvider to walletInstance--><g id="link_qeeaProvider_walletInstance"><path d="M471.0849,376.8105 C471.1315,376.8719 471.1784,376.9335 471.2254,376.9953 C471.3194,377.1188 471.4141,377.2428 471.5095,377.3674 C471.8911,377.8658 472.2838,378.373 472.6874,378.8875 C473.4946,379.9166 474.3452,380.9755 475.2363,382.0538 C482.365,390.68 492.09,400.55 503,406.39 C553.6,433.47 577.26,407.08 630,429.71 C659.585,442.4 688.875,463.575 710.9938,481.8088 C722.0531,490.9256 731.3197,499.3072 737.9339,505.5252 C738.7607,506.3024 739.546,507.0458 740.2882,507.7527 C740.4738,507.9294 736.3182,503.9591 736.4984,504.1312 " fill="none" id="qeeaProvider-to-walletInstance" style="stroke:#666666;stroke-width:1;"/><polygon fill="#666666" points="740.8368,508.2759,737.0923,499.1666,737.2214,504.822,731.5661,504.9512,740.8368,508.2759" style="stroke:#666666;stroke-width:1;"/><text fill="#666666" font-family="sans-serif" font-size="12" font-weight="bold" lengthAdjust="spacing" textLength="12.9082" x="659" y="441.8487">9.</text><text fill="#666666" font-family="sans-serif" font-size="12" font-weight="bold" lengthAdjust="spacing" textLength="4.1777" x="671.9082" y="441.8487">&#160;</text><text fill="#666666" font-family="sans-serif" font-size="12" font-weight="bold" lengthAdjust="spacing" textLength="35.4316" x="676.0859" y="441.8487">Issue</text><text fill="#666666" font-family="sans-serif" font-size="12" font-weight="bold" lengthAdjust="spacing" textLength="4.1777" x="711.5176" y="441.8487">&#160;</text><text fill="#666666" font-family="sans-serif" font-size="12" font-weight="bold" lengthAdjust="spacing" textLength="41.3672" x="715.6953" y="441.8487">Q)EEA</text></g><!--link nationaleID to CIESPID--><g id="link_nationaleID_CIESPID"><path d="M135,566.12 C135,600.45 135,635.36 135,660.47 " fill="none" id="nationaleID-CIESPID" style="stroke:#666666;stroke-width:1;"/><polygon fill="#666666" points="135,560.12,131,569.12,135,565.12,139,569.12,135,560.12" style="stroke:#666666;stroke-width:1;"/><polygon fill="#666666" points="135,666.47,139,657.47,135,661.47,131,657.47,135,666.47" style="stroke:#666666;stroke-width:1;"/><text fill="#666666" font-family="sans-serif" font-size="12" font-weight="bold" lengthAdjust="spacing" textLength="12.9082" x="136" y="620.0287">8.</text><text fill="#666666" font-family="sans-serif" font-size="12" font-weight="bold" lengthAdjust="spacing" textLength="4.1777" x="148.9082" y="620.0287">&#160;</text><text fill="#666666" font-family="sans-serif" font-size="12" font-weight="bold" lengthAdjust="spacing" textLength="94.8691" x="153.0859" y="620.0287">Authenticates</text><text fill="#666666" font-family="sans-serif" font-size="12" font-weight="bold" lengthAdjust="spacing" textLength="4.1777" x="247.9551" y="620.0287">&#160;</text><text fill="#666666" font-family="sans-serif" font-size="12" font-weight="bold" lengthAdjust="spacing" textLength="22.418" x="252.1328" y="620.0287">the</text><text fill="#666666" font-family="sans-serif" font-size="12" font-weight="bold" lengthAdjust="spacing" textLength="30.9434" x="189.8037" y="633.9974">User</text></g><!--link oidcvci to nationaleID--><g id="link_oidcvci_nationaleID"><path d="M135,396.75 C135,419.58 135,441.42 135,468.21 " fill="none" id="oidcvci-nationaleID" style="stroke:#666666;stroke-width:1;"/><polygon fill="#666666" points="135,390.75,131,399.75,135,395.75,139,399.75,135,390.75" style="stroke:#666666;stroke-width:1;"/><polygon fill="#666666" points="135,474.21,139,465.21,135,469.21,131,465.21,135,474.21" style="stroke:#666666;stroke-width:1;"/><text fill="#666666" font-family="sans-serif" font-size="12" lengthAdjust="spacing" textLength="3.8145" x="136" y="441.8487">&#160;</text></g><!--SRC=[VPHTJzim58RlyolEShDMegcsiIzK8PLIf6Xqb5NTBgO9EVQXzURO8NPW5UA_xpXEFzB2SXKV-tdFXz_abTHSLG9XwLnXJ_hzaZqa2-cMLLPPBBdH3hLBkCdxXMBQLRdgMIUKpFgZuzxKX-QJotxEhCEIGZSZ8fZKM2O5dOqYnfqfOKvQm2p4_YMEejcApkStPwRIWfMhpWDJ2jtCgCf9euyW_b47O1s9k_0O0JtFWwcsZccEMt0TsO3-sTJMoHZ_KnN3Giwml9SrU5Q7O3XDeGd6tPfyYg8sd9jCAfnHNspXoKczXdFq45mQpXGqkvlqJz7JOTTtY6nQcdifi2ITw_5u2ElrXjpcDLBmUoxfv5LwFeBlevGsyy9ekg6crkrXpVpScCBqd82lpGfekGFHJWUJHN84Nl48PiF9PVT0wXO5AtpQ2wJ2QgMzCL5lhs4e130eaTFW5pGFhen5S0PQVKNR0wDqF9jIFO-17_yjbEJIWM8hKpbWudTbNKvrmYrPg31M-jHIBwBM3K3lvr8AWVfNxnJQVl2otr3L9TkbB6nK6x571_ST02SG3xBJDma1beGHWfC6_Umq3jZWFzpRn7UO5yutF2-KOG8QHrrGgVigxGQ2nBk49gfeEhiWt9BgsaqxAi-L4cIEa_MiOQnvkIeSjae1fWNjqESANt05qsN9BDeWVT1Sxs2a8SdxXEo-9nuaWbbU13yaS9LvNy447HFCiOPh7wxvtS-ZcT57Vprt5TqGTAwxtbU1td5x673ZhK1zIc1OkIKvINBcq0Azrx-a0BVol5JuvmHIQok4EcqDGjHyaI7bRWt4nFy0]--></g></svg>